# xmcd CD database file
#
# Track frame offsets:
#	150
#	3470
#	14357
#	22935
#	27817
#	39560
#	56550
#	61317
#	78765
#	94662
#	111867
#	126400
#	132907
#	135005
#	138112
#	156190
#	164525
#	182857
#	197095
#	213165
#
# Disc length: 2936 seconds
#
# Revision: 0
# Processed by: cddbd v1.5.2PL0 Copyright (c) Steve Scherf et al.
# Submitted via: CDex 1.70beta2
#
DISCID=010b7614
DTITLE=Julien Ash - Incandescent
DYEAR=1991
DGENRE=New Age
TTITLE0=Fields
TTITLE1=Sorrow
TTITLE2=The Game Never Ends
TTITLE3=Chute d'une Gargouille Sur Le Parvis
TTITLE4=The Sound of Light (Incandescent)
TTITLE5=Cover Me With a Sheet
TTITLE6=Le Principe Du Non-Agir
TTITLE7=Now Listen (To The Eye In The Grave)
TTITLE8=Marie En Tenue De Gala
TTITLE9=Dawn
TTITLE10=Catatonie 1990
TTITLE11=Second Grey Vision Of Kha
TTITLE12=Crime Passionnel (En Terre Sainte)
TTITLE13=Candles (The Doubt)
TTITLE14=The Light Of Sound
TTITLE15=Catatonie 1991
TTITLE16=La Mer Recrache Vos Cadavres
TTITLE17=I Looked At Myself I Became Pregnant
TTITLE18=Still Burning
TTITLE19=Empty Fields
EXTD=YEAR: 1991
EXTT0=
EXTT1=
EXTT2=
EXTT3=
EXTT4=
EXTT5=
EXTT6=
EXTT7=
EXTT8=
EXTT9=
EXTT10=
EXTT11=
EXTT12=
EXTT13=
EXTT14=
EXTT15=
EXTT16=
EXTT17=
EXTT18=
EXTT19=
PLAYORDER=
